# xmcd CD database file
#
# Track frame offsets:
#	150
#	27252
#	56006
#	82757
#	123700
#	148931
#	176952
#	207958
#	237702
#	261059
#
# Disc length: 3746 seconds
#
# Revision: 1
# Processed by: cddbd v1.5.1PL0 Copyright (c) Steve Scherf et al.
# Submitted via: jetAudio 5
#
DISCID=960ea00a
DTITLE=Arthur Miles - Faces the Blues
DYEAR=1900
DGENRE=
TTITLE0=I Heard it through the Grapevine
TTITLE1=Dimples
TTITLE2=Dock of the bay
TTITLE3=Must be Saturday
TTITLE4=Caledonia
TTITLE5=Georgia on my Mind
TTITLE6=I'm gonna be rich someday
TTITLE7=Checking up on my baby
TTITLE8=Stand by me
TTITLE9=My girl
EXTD=
EXTT0=
EXTT1=
EXTT2=
EXTT3=
EXTT4=
EXTT5=
EXTT6=
EXTT7=
EXTT8=
EXTT9=
PLAYORDER=
